<svg width="523" height="274" viewBox="0 0 523 274" fill="none" xmlns="http://www.w3.org/2000/svg">
<g filter="url(#filter0_d_0_1)">
<path d="M90.3182 89.378C89.8142 89.378 89.3102 89.21 88.8062 88.874C88.3022 88.538 88.0502 88.118 88.0502 87.614C88.0502 86.27 88.8482 85.388 90.4442 84.968C92.7962 84.38 94.8122 83.792 96.4922 83.204C98.1722 82.616 99.4742 81.818 100.398 80.81C101.322 79.718 101.784 78.29 101.784 76.526V30.914C101.784 28.898 101.238 27.386 100.146 26.378C99.1382 25.286 97.7942 24.488 96.1142 23.984C94.5182 23.48 92.7962 23.102 90.9482 22.85C90.2762 22.682 89.5622 22.388 88.8062 21.968C88.0502 21.548 87.6722 20.876 87.6722 19.952C87.6722 18.86 88.0502 18.104 88.8062 17.684C89.6462 17.18 90.5702 16.886 91.5782 16.802C96.5342 16.382 100.986 15.584 104.934 14.408C108.882 13.232 112.788 11.51 116.652 9.242C116.82 9.158 117.03 9.074 117.282 8.98999C117.534 8.90599 117.786 8.864 118.038 8.864C118.626 8.864 119.172 8.99 119.676 9.242C120.264 9.49399 120.558 9.78799 120.558 10.124C120.558 11.216 120.432 12.476 120.18 13.904C120.012 15.248 119.928 17.054 119.928 19.322V76.652C119.928 78.248 120.432 79.55 121.44 80.558C122.448 81.566 123.876 82.406 125.724 83.078C127.572 83.666 129.714 84.296 132.15 84.968C132.822 85.22 133.368 85.514 133.788 85.85C134.208 86.186 134.418 86.732 134.418 87.488C134.418 88.664 133.788 89.252 132.528 89.252C130.596 89.252 128.286 89.21 125.598 89.126C122.994 89.042 120.39 88.958 117.786 88.874C115.266 88.79 113.082 88.748 111.234 88.748C109.47 88.748 107.328 88.79 104.808 88.874C102.288 88.958 99.7262 89.042 97.1222 89.126C94.5182 89.294 92.2502 89.378 90.3182 89.378ZM175.154 90.764C170.114 90.764 165.746 89.588 162.05 87.236C158.354 84.884 155.246 81.776 152.726 77.912C150.29 73.964 148.484 69.638 147.308 64.934C146.132 60.23 145.544 55.568 145.544 50.948C145.544 46.16 146.132 41.33 147.308 36.458C148.484 31.586 150.332 27.134 152.852 23.102C155.372 18.986 158.606 15.71 162.554 13.274C166.502 10.754 171.164 9.49399 176.54 9.49399C181.58 9.49399 185.948 10.67 189.644 13.022C193.424 15.374 196.49 18.524 198.842 22.472C201.278 26.336 203.084 30.62 204.26 35.324C205.52 39.944 206.15 44.522 206.15 49.058C206.15 53.846 205.562 58.676 204.386 63.548C203.21 68.42 201.362 72.914 198.842 77.03C196.406 81.146 193.214 84.464 189.266 86.984C185.402 89.504 180.698 90.764 175.154 90.764ZM177.044 85.094C179.732 85.094 181.874 83.54 183.47 80.432C185.15 77.24 186.368 73.082 187.124 67.958C187.88 62.834 188.258 57.29 188.258 51.326C188.258 46.874 187.964 42.506 187.376 38.222C186.788 33.938 185.906 30.074 184.73 26.63C183.554 23.102 182.126 20.33 180.446 18.314C178.766 16.214 176.792 15.164 174.524 15.164C171.836 15.164 169.694 16.76 168.098 19.952C166.502 23.06 165.326 27.176 164.57 32.3C163.898 37.34 163.562 42.842 163.562 48.806C163.562 53.258 163.814 57.626 164.318 61.91C164.906 66.194 165.746 70.1 166.838 73.628C168.014 77.072 169.442 79.844 171.122 81.944C172.802 84.044 174.776 85.094 177.044 85.094ZM230.001 55.862C226.557 55.862 223.533 54.938 220.929 53.09C218.325 51.158 216.225 48.554 214.629 45.278C213.117 42.002 212.361 38.264 212.361 34.064C212.361 29.528 213.117 25.58 214.629 22.22C216.225 18.776 218.409 16.13 221.181 14.282C224.037 12.35 227.355 11.384 231.135 11.384C234.663 11.384 237.729 12.35 240.333 14.282C242.937 16.13 244.953 18.692 246.381 21.968C247.893 25.16 248.649 28.814 248.649 32.93C248.649 37.802 247.809 41.96 246.129 45.404C244.533 48.764 242.307 51.368 239.451 53.216C236.679 54.98 233.529 55.862 230.001 55.862ZM231.009 51.83C232.437 51.83 233.529 50.99 234.285 49.31C235.041 47.63 235.545 45.446 235.797 42.758C236.133 39.986 236.301 37.13 236.301 34.19C236.301 31.166 236.091 28.226 235.671 25.37C235.251 22.514 234.579 20.162 233.655 18.314C232.731 16.466 231.513 15.542 230.001 15.542C228.657 15.542 227.607 16.382 226.851 18.062C226.095 19.742 225.549 21.926 225.213 24.614C224.961 27.218 224.835 29.99 224.835 32.93C224.835 35.198 224.919 37.466 225.087 39.734C225.339 41.918 225.717 43.934 226.221 45.782C226.725 47.546 227.355 49.016 228.111 50.192C228.867 51.284 229.833 51.83 231.009 51.83ZM275.991 8.108C276.663 6.932 277.503 6.176 278.511 5.84C279.603 5.504 280.821 5.336 282.165 5.336C282.837 5.336 283.383 5.58799 283.803 6.09199C284.223 6.51199 284.433 6.97399 284.433 7.478C284.433 7.814 284.391 8.024 284.307 8.108L232.647 89.504C232.143 90.512 231.345 91.142 230.253 91.394C229.245 91.73 228.153 91.898 226.977 91.898C226.305 91.898 225.675 91.688 225.087 91.268C224.499 90.932 224.205 90.512 224.205 90.008C224.205 89.84 224.247 89.672 224.331 89.504L275.991 8.108ZM275.361 91.142C271.917 91.142 268.893 90.218 266.289 88.37C263.685 86.438 261.585 83.834 259.989 80.558C258.477 77.282 257.721 73.544 257.721 69.344C257.721 64.808 258.477 60.86 259.989 57.5C261.585 54.056 263.769 51.41 266.541 49.562C269.397 47.63 272.715 46.664 276.495 46.664C280.023 46.664 283.089 47.63 285.693 49.562C288.297 51.41 290.313 53.972 291.741 57.248C293.253 60.44 294.009 64.094 294.009 68.21C294.009 73.082 293.169 77.24 291.489 80.684C289.893 84.044 287.667 86.648 284.811 88.496C282.039 90.26 278.889 91.142 275.361 91.142ZM276.369 87.11C277.797 87.11 278.889 86.27 279.645 84.59C280.401 82.91 280.905 80.726 281.157 78.038C281.493 75.266 281.661 72.41 281.661 69.47C281.661 66.446 281.451 63.506 281.031 60.65C280.611 57.794 279.939 55.442 279.015 53.594C278.091 51.746 276.873 50.822 275.361 50.822C274.017 50.822 272.967 51.662 272.211 53.342C271.455 55.022 270.909 57.206 270.573 59.894C270.321 62.498 270.195 65.27 270.195 68.21C270.195 70.478 270.279 72.746 270.447 75.014C270.699 77.198 271.077 79.214 271.581 81.062C272.085 82.826 272.715 84.296 273.471 85.472C274.227 86.564 275.193 87.11 276.369 87.11ZM372.438 91.394C372.186 91.394 371.808 91.1 371.304 90.512C370.884 90.008 370.674 89.588 370.674 89.252C370.842 87.992 370.968 86.816 371.052 85.724C371.22 84.548 371.304 83.498 371.304 82.574V81.818C369.624 84.422 367.272 86.564 364.248 88.244C361.308 89.924 358.116 90.764 354.672 90.764C349.968 90.764 345.768 89.588 342.072 87.236C338.46 84.884 335.604 81.692 333.504 77.66C331.404 73.628 330.354 69.218 330.354 64.43C330.354 58.718 331.614 53.636 334.134 49.184C336.654 44.732 340.182 41.246 344.718 38.726C349.254 36.122 354.504 34.82 360.468 34.82C361.728 34.82 363.03 34.946 364.374 35.198C365.802 35.366 367.104 35.618 368.28 35.954C369.456 36.206 370.002 36.332 369.918 36.332C370.254 36.332 370.422 35.786 370.422 34.694V19.7C370.422 16.676 370.044 14.492 369.288 13.148C368.532 11.804 367.272 10.964 365.508 10.628C364.5 10.376 363.996 9.746 363.996 8.738C363.996 7.646 364.458 7.016 365.382 6.848C368.49 6.176 371.682 5.336 374.958 4.32799C378.318 3.23599 381.048 2.22799 383.148 1.304C384.24 0.799996 384.996 0.505998 385.416 0.421999C385.836 0.253996 386.088 0.169995 386.172 0.169995C387.096 0.169995 387.558 0.673996 387.558 1.682C387.558 1.43 387.516 1.76599 387.432 2.68999C387.348 3.53 387.264 4.664 387.18 6.09199C387.096 7.52 387.012 8.948 386.928 10.376L386.298 73.88C386.298 76.736 386.508 78.794 386.928 80.054C387.348 81.314 388.104 81.944 389.196 81.944C389.616 81.944 390.036 81.902 390.456 81.818C390.96 81.734 392.178 81.65 394.11 81.566C395.286 81.482 395.874 81.902 395.874 82.826C395.874 83.498 395.622 84.212 395.118 84.968C394.614 85.724 394.152 86.102 393.732 86.102C390.708 86.438 387.516 86.984 384.156 87.74C380.88 88.496 377.688 89.462 374.58 90.638C374.076 90.89 373.656 91.058 373.32 91.142C372.984 91.31 372.69 91.394 372.438 91.394ZM361.098 82.196C362.358 82.196 363.912 81.86 365.76 81.188C367.692 80.516 369.246 79.55 370.422 78.29L370.296 50.444C370.296 48.932 369.708 47.462 368.532 46.034C367.44 44.522 366.012 43.262 364.248 42.254C362.568 41.246 360.888 40.742 359.208 40.742C357.192 40.742 355.302 41.582 353.538 43.262C351.858 44.858 350.472 47.168 349.38 50.192C348.372 53.132 347.868 56.744 347.868 61.028C347.868 64.472 348.204 67.496 348.876 70.1C349.632 72.704 350.64 74.93 351.9 76.778C353.16 78.542 354.588 79.886 356.184 80.81C357.78 81.734 359.418 82.196 361.098 82.196ZM421.469 90.764C416.933 90.764 412.859 89.588 409.247 87.236C405.719 84.8 402.905 81.524 400.805 77.408C398.789 73.208 397.781 68.462 397.781 63.17C397.781 57.878 398.999 53.09 401.435 48.806C403.871 44.438 407.189 40.994 411.389 38.474C415.589 35.87 420.209 34.568 425.249 34.568C428.861 34.568 432.095 35.366 434.951 36.962C437.807 38.474 440.075 40.532 441.755 43.136C443.519 45.74 444.401 48.68 444.401 51.956C444.401 55.148 443.099 56.744 440.495 56.744H415.295C414.119 56.744 413.237 57.08 412.649 57.752C412.145 58.424 411.893 59.558 411.893 61.154C411.893 64.346 412.607 67.286 414.035 69.974C415.463 72.578 417.395 74.636 419.831 76.148C422.267 77.66 425.081 78.416 428.273 78.416C430.709 78.416 432.935 77.954 434.951 77.03C437.051 76.106 439.109 74.846 441.125 73.25C441.461 72.998 441.755 72.788 442.007 72.62C442.343 72.368 442.637 72.242 442.889 72.242C443.729 72.242 444.149 72.788 444.149 73.88C444.149 74.804 443.813 76.064 443.141 77.66C442.301 79.76 440.873 81.86 438.857 83.96C436.925 85.976 434.489 87.614 431.549 88.874C428.609 90.134 425.249 90.764 421.469 90.764ZM415.295 51.452H422.855C425.207 51.452 426.845 51.41 427.769 51.326C428.693 51.242 429.533 51.074 430.289 50.822C430.709 50.654 431.045 50.234 431.297 49.562C431.549 48.89 431.675 48.134 431.675 47.294C431.675 45.026 430.877 43.178 429.281 41.75C427.769 40.322 425.879 39.608 423.611 39.608C421.847 39.608 420.167 40.112 418.571 41.12C417.059 42.044 415.799 43.304 414.791 44.9C413.867 46.412 413.447 48.008 413.531 49.688C413.531 50.864 414.119 51.452 415.295 51.452ZM47.0406 208.394C46.7886 208.394 46.4106 208.1 45.9066 207.512C45.4866 207.008 45.2766 206.588 45.2766 206.252C45.4446 204.992 45.5706 203.816 45.6546 202.724C45.8226 201.548 45.9066 200.498 45.9066 199.574V198.818C44.2266 201.422 41.8746 203.564 38.8506 205.244C35.9106 206.924 32.7186 207.764 29.2746 207.764C24.5706 207.764 20.3706 206.588 16.6746 204.236C13.0626 201.884 10.2066 198.692 8.10662 194.66C6.00662 190.628 4.95662 186.218 4.95662 181.43C4.95662 175.718 6.21662 170.636 8.73662 166.184C11.2566 161.732 14.7846 158.246 19.3206 155.726C23.8566 153.122 29.1066 151.82 35.0706 151.82C36.3306 151.82 37.6326 151.946 38.9766 152.198C40.4046 152.366 41.7066 152.618 42.8826 152.954C44.0586 153.206 44.6046 153.332 44.5206 153.332C44.8566 153.332 45.0246 152.786 45.0246 151.694V136.7C45.0246 133.676 44.6466 131.492 43.8906 130.148C43.1346 128.804 41.8746 127.964 40.1106 127.628C39.1026 127.376 38.5986 126.746 38.5986 125.738C38.5986 124.646 39.0606 124.016 39.9846 123.848C43.0926 123.176 46.2846 122.336 49.5606 121.328C52.9206 120.236 55.6506 119.228 57.7506 118.304C58.8426 117.8 59.5986 117.506 60.0186 117.422C60.4386 117.254 60.6906 117.17 60.7746 117.17C61.6986 117.17 62.1606 117.674 62.1606 118.682C62.1606 118.43 62.1186 118.766 62.0346 119.69C61.9506 120.53 61.8666 121.664 61.7826 123.092C61.6986 124.52 61.6146 125.948 61.5306 127.376L60.9006 190.88C60.9006 193.736 61.1106 195.794 61.5306 197.054C61.9506 198.314 62.7066 198.944 63.7986 198.944C64.2186 198.944 64.6386 198.902 65.0586 198.818C65.5626 198.734 66.7806 198.65 68.7126 198.566C69.8886 198.482 70.4766 198.902 70.4766 199.826C70.4766 200.498 70.2246 201.212 69.7206 201.968C69.2166 202.724 68.7546 203.102 68.3346 203.102C65.3106 203.438 62.1186 203.984 58.7586 204.74C55.4826 205.496 52.2906 206.462 49.1826 207.638C48.6786 207.89 48.2586 208.058 47.9226 208.142C47.5866 208.31 47.2926 208.394 47.0406 208.394ZM35.7006 199.196C36.9606 199.196 38.5146 198.86 40.3626 198.188C42.2946 197.516 43.8486 196.55 45.0246 195.29L44.8986 167.444C44.8986 165.932 44.3106 164.462 43.1346 163.034C42.0426 161.522 40.6146 160.262 38.8506 159.254C37.1706 158.246 35.4906 157.742 33.8106 157.742C31.7946 157.742 29.9046 158.582 28.1406 160.262C26.4606 161.858 25.0746 164.168 23.9826 167.192C22.9746 170.132 22.4706 173.744 22.4706 178.028C22.4706 181.472 22.8066 184.496 23.4786 187.1C24.2346 189.704 25.2426 191.93 26.5026 193.778C27.7626 195.542 29.1906 196.886 30.7866 197.81C32.3826 198.734 34.0206 199.196 35.7006 199.196ZM96.0714 207.764C91.5354 207.764 87.4614 206.588 83.8494 204.236C80.3214 201.8 77.5074 198.524 75.4074 194.408C73.3914 190.208 72.3834 185.462 72.3834 180.17C72.3834 174.878 73.6014 170.09 76.0374 165.806C78.4734 161.438 81.7914 157.994 85.9914 155.474C90.1914 152.87 94.8114 151.568 99.8514 151.568C103.463 151.568 106.697 152.366 109.553 153.962C112.409 155.474 114.677 157.532 116.357 160.136C118.121 162.74 119.003 165.68 119.003 168.956C119.003 172.148 117.701 173.744 115.097 173.744H89.8974C88.7214 173.744 87.8394 174.08 87.2514 174.752C86.7474 175.424 86.4954 176.558 86.4954 178.154C86.4954 181.346 87.2094 184.286 88.6374 186.974C90.0654 189.578 91.9974 191.636 94.4334 193.148C96.8694 194.66 99.6834 195.416 102.875 195.416C105.311 195.416 107.537 194.954 109.553 194.03C111.653 193.106 113.711 191.846 115.727 190.25C116.063 189.998 116.357 189.788 116.609 189.62C116.945 189.368 117.239 189.242 117.491 189.242C118.331 189.242 118.751 189.788 118.751 190.88C118.751 191.804 118.415 193.064 117.743 194.66C116.903 196.76 115.475 198.86 113.459 200.96C111.527 202.976 109.091 204.614 106.151 205.874C103.211 207.134 99.8514 207.764 96.0714 207.764ZM89.8974 168.452H97.4574C99.8094 168.452 101.447 168.41 102.371 168.326C103.295 168.242 104.135 168.074 104.891 167.822C105.311 167.654 105.647 167.234 105.899 166.562C106.151 165.89 106.277 165.134 106.277 164.294C106.277 162.026 105.479 160.178 103.883 158.75C102.371 157.322 100.481 156.608 98.2134 156.608C96.4494 156.608 94.7694 157.112 93.1734 158.12C91.6614 159.044 90.4014 160.304 89.3934 161.9C88.4694 163.412 88.0494 165.008 88.1334 166.688C88.1334 167.864 88.7214 168.452 89.8974 168.452ZM142.816 207.764C140.044 207.764 137.356 207.428 134.752 206.756C132.148 206.084 129.796 204.992 127.696 203.48C126.94 202.22 126.394 200.246 126.058 197.558C125.722 194.87 125.596 192.056 125.68 189.116C125.68 188.108 126.52 187.604 128.2 187.604C128.872 187.604 129.46 187.814 129.964 188.234C130.468 188.654 130.762 189.074 130.846 189.494C132.442 193.022 134.29 196.046 136.39 198.566C138.49 201.002 141.01 202.22 143.95 202.22C146.218 202.22 147.94 201.548 149.116 200.204C150.292 198.776 150.88 197.18 150.88 195.416C150.88 193.232 149.998 191.426 148.234 189.998C146.554 188.486 144.496 187.1 142.06 185.84C139.624 184.58 137.314 183.152 135.13 181.556C132.946 179.96 131.14 178.07 129.712 175.886C128.368 173.618 127.696 170.93 127.696 167.822C127.696 164.546 128.578 161.69 130.342 159.254C132.19 156.818 134.626 154.928 137.65 153.584C140.758 152.156 144.202 151.442 147.982 151.442C150.754 151.442 153.316 151.778 155.668 152.45C158.02 153.038 159.616 153.626 160.456 154.214C161.128 155.054 161.674 156.65 162.094 159.002C162.514 161.27 162.724 163.79 162.724 166.562C162.724 167.486 161.968 167.948 160.456 167.948C159.868 167.948 159.238 167.738 158.566 167.318C157.978 166.898 157.6 166.478 157.432 166.058C156.34 162.782 154.912 160.346 153.148 158.75C151.468 157.07 149.578 156.23 147.478 156.23C145.63 156.23 143.95 156.818 142.438 157.994C140.926 159.17 140.17 160.766 140.17 162.782C140.17 164.546 140.968 166.142 142.564 167.57C144.244 168.914 146.302 170.258 148.738 171.602C154.198 174.458 158.104 177.23 160.456 179.918C162.808 182.522 163.984 186.008 163.984 190.376C163.984 195.836 162.178 200.12 158.566 203.228C155.038 206.252 149.788 207.764 142.816 207.764ZM194.017 207.764C189.565 207.764 185.533 206.588 181.921 204.236C178.393 201.8 175.579 198.566 173.479 194.534C171.463 190.418 170.455 185.798 170.455 180.674C170.455 175.214 171.715 170.3 174.235 165.932C176.755 161.564 180.115 158.078 184.315 155.474C188.599 152.87 193.345 151.568 198.553 151.568C205.441 151.568 211.153 153.836 215.689 158.372C216.445 159.212 216.823 159.968 216.823 160.64C216.823 161.144 216.445 161.9 215.689 162.908C214.933 163.832 214.093 164.672 213.169 165.428C212.245 166.184 211.447 166.562 210.775 166.562C210.019 166.562 209.263 166.352 208.507 165.932C207.835 165.428 207.163 164.882 206.491 164.294C204.307 162.446 202.081 160.976 199.813 159.884C197.629 158.708 195.739 158.12 194.143 158.12C190.951 158.12 188.515 159.464 186.835 162.152C185.239 164.756 184.441 169.04 184.441 175.004C184.441 179.12 185.071 182.69 186.331 185.714C187.675 188.654 189.565 190.922 192.001 192.518C194.437 194.114 197.377 194.912 200.821 194.912C203.341 194.912 205.525 194.534 207.373 193.778C209.221 192.938 211.153 191.678 213.169 189.998C213.589 189.746 213.925 189.494 214.177 189.242C214.513 188.99 214.891 188.864 215.311 188.864C216.319 188.864 216.823 189.536 216.823 190.88C216.823 191.216 216.739 191.72 216.571 192.392C216.487 192.98 216.235 193.652 215.815 194.408C215.059 196.088 213.589 197.978 211.405 200.078C209.305 202.178 206.785 203.984 203.845 205.496C200.905 207.008 197.629 207.764 194.017 207.764ZM262.829 208.646C262.157 208.646 261.821 208.226 261.821 207.386C261.821 206.378 261.905 205.034 262.073 203.354C262.325 201.674 262.451 200.372 262.451 199.448C262.451 199.112 262.409 198.818 262.325 198.566C262.325 198.314 262.283 198.146 262.199 198.062C259.931 200.834 257.033 203.186 253.505 205.118C249.977 206.966 246.239 207.89 242.291 207.89C239.687 207.89 237.335 207.134 235.235 205.622C233.135 204.026 231.455 201.884 230.195 199.196C229.019 196.508 228.431 193.484 228.431 190.124V166.562C228.431 164.63 228.053 163.076 227.297 161.9C226.625 160.724 225.323 159.926 223.391 159.506C222.887 159.422 222.425 159.212 222.005 158.876C221.669 158.456 221.501 157.868 221.501 157.112C221.501 156.524 221.669 156.062 222.005 155.726C222.341 155.306 222.803 155.054 223.391 154.97C226.919 154.802 230.111 154.466 232.967 153.962C235.823 153.374 238.721 152.702 241.661 151.946C242.081 151.862 242.501 151.778 242.921 151.694C243.425 151.526 243.887 151.442 244.307 151.442C245.483 151.442 246.029 152.03 245.945 153.206C245.609 155.138 245.357 156.776 245.189 158.12C245.021 159.38 244.937 160.976 244.937 162.908V187.1C244.937 189.116 245.273 190.88 245.945 192.392C246.617 193.904 247.541 195.08 248.717 195.92C249.893 196.76 251.195 197.222 252.623 197.306C253.967 197.306 255.269 197.138 256.529 196.802C257.873 196.466 259.133 195.71 260.309 194.534C260.813 194.114 261.359 193.274 261.947 192.014C262.535 190.67 262.829 188.906 262.829 186.722V166.436C262.829 164.924 262.535 163.706 261.947 162.782C261.359 161.774 260.561 160.976 259.553 160.388C258.545 159.8 257.369 159.464 256.025 159.38C255.101 159.296 254.345 159.086 253.757 158.75C253.253 158.33 253.001 157.616 253.001 156.608C253.001 155.768 253.295 155.138 253.883 154.718C254.471 154.298 255.185 154.088 256.025 154.088C260.309 153.836 263.711 153.626 266.231 153.458C268.751 153.206 270.809 152.954 272.405 152.702C274.001 152.45 275.597 152.156 277.193 151.82C277.445 151.736 277.739 151.652 278.075 151.568C278.411 151.484 278.663 151.442 278.831 151.442C280.091 151.442 280.721 151.946 280.721 152.954C280.721 153.206 280.679 153.5 280.595 153.836C280.511 154.172 280.385 154.508 280.217 154.844C280.133 155.18 280.007 155.936 279.839 157.112C279.755 158.204 279.629 159.38 279.461 160.64C279.377 161.9 279.335 162.908 279.335 163.664V192.896C279.335 194.828 279.545 196.13 279.965 196.802C280.469 197.39 281.015 197.684 281.603 197.684C282.023 197.684 282.653 197.726 283.493 197.81C284.333 197.81 284.879 197.81 285.131 197.81C285.887 197.81 286.475 198.02 286.895 198.44C287.315 198.86 287.525 199.406 287.525 200.078C287.525 200.834 287.357 201.464 287.021 201.968C286.769 202.388 286.223 202.64 285.383 202.724C281.351 203.06 277.697 203.774 274.421 204.866C271.229 205.874 268.457 206.84 266.105 207.764C265.601 207.932 265.055 208.1 264.467 208.268C263.879 208.52 263.333 208.646 262.829 208.646ZM315.218 207.764C310.682 207.764 306.608 206.588 302.996 204.236C299.468 201.8 296.654 198.524 294.554 194.408C292.538 190.208 291.53 185.462 291.53 180.17C291.53 174.878 292.748 170.09 295.184 165.806C297.62 161.438 300.938 157.994 305.138 155.474C309.338 152.87 313.958 151.568 318.998 151.568C322.61 151.568 325.844 152.366 328.7 153.962C331.556 155.474 333.824 157.532 335.504 160.136C337.268 162.74 338.15 165.68 338.15 168.956C338.15 172.148 336.848 173.744 334.244 173.744H309.044C307.868 173.744 306.986 174.08 306.398 174.752C305.894 175.424 305.642 176.558 305.642 178.154C305.642 181.346 306.356 184.286 307.784 186.974C309.212 189.578 311.144 191.636 313.58 193.148C316.016 194.66 318.83 195.416 322.022 195.416C324.458 195.416 326.684 194.954 328.7 194.03C330.8 193.106 332.858 191.846 334.874 190.25C335.21 189.998 335.504 189.788 335.756 189.62C336.092 189.368 336.386 189.242 336.638 189.242C337.478 189.242 337.898 189.788 337.898 190.88C337.898 191.804 337.562 193.064 336.89 194.66C336.05 196.76 334.622 198.86 332.606 200.96C330.674 202.976 328.238 204.614 325.298 205.874C322.358 207.134 318.998 207.764 315.218 207.764ZM309.044 168.452H316.604C318.956 168.452 320.594 168.41 321.518 168.326C322.442 168.242 323.282 168.074 324.038 167.822C324.458 167.654 324.794 167.234 325.046 166.562C325.298 165.89 325.424 165.134 325.424 164.294C325.424 162.026 324.626 160.178 323.03 158.75C321.518 157.322 319.628 156.608 317.36 156.608C315.596 156.608 313.916 157.112 312.32 158.12C310.808 159.044 309.548 160.304 308.54 161.9C307.616 163.412 307.196 165.008 307.28 166.688C307.28 167.864 307.868 168.452 309.044 168.452ZM346.339 206.378C345.751 206.378 345.163 206.252 344.575 206C344.071 205.664 343.819 205.202 343.819 204.614C343.819 203.942 344.113 203.438 344.701 203.102C345.289 202.682 345.961 202.346 346.717 202.094C347.977 201.674 349.069 201.212 349.993 200.708C351.001 200.12 351.505 198.986 351.505 197.306V168.452C351.505 166.604 351.211 165.05 350.623 163.79C350.119 162.53 349.111 161.732 347.599 161.396C347.263 161.312 346.927 161.102 346.591 160.766C346.339 160.43 346.213 159.884 346.213 159.128C346.213 157.952 346.633 157.238 347.473 156.986C350.329 156.314 353.437 155.432 356.797 154.34C360.241 153.164 363.181 151.946 365.617 150.686C365.953 150.518 366.331 150.308 366.751 150.056C367.171 149.804 367.549 149.678 367.885 149.678C368.389 149.678 368.683 149.846 368.767 150.182C368.935 150.434 369.019 150.77 369.019 151.19C369.019 151.862 368.893 152.954 368.641 154.466C368.473 155.894 368.389 157.196 368.389 158.372C368.389 158.708 368.389 159.086 368.389 159.506C368.473 159.926 368.557 160.178 368.641 160.262C371.497 157.49 374.395 155.348 377.335 153.836C380.275 152.324 383.677 151.568 387.541 151.568C391.909 151.568 395.563 153.206 398.503 156.482C401.527 159.674 403.039 164.042 403.039 169.586V197.306C403.039 198.986 403.501 200.12 404.425 200.708C405.433 201.212 406.567 201.674 407.827 202.094C408.499 202.346 409.087 202.682 409.591 203.102C410.095 203.438 410.347 203.942 410.347 204.614C410.347 205.202 410.095 205.664 409.591 206C409.171 206.252 408.709 206.378 408.205 206.378C406.525 206.378 404.929 206.294 403.417 206.126C401.989 206.042 400.561 205.958 399.133 205.874C397.789 205.79 396.361 205.748 394.849 205.748C393.421 205.748 391.993 205.79 390.565 205.874C389.137 205.958 387.709 206.042 386.281 206.126C384.853 206.294 383.299 206.378 381.619 206.378C381.115 206.378 380.611 206.252 380.107 206C379.687 205.664 379.477 205.202 379.477 204.614C379.477 203.942 379.729 203.438 380.233 203.102C380.737 202.682 381.325 202.346 381.997 202.094C383.257 201.674 384.307 201.212 385.147 200.708C385.987 200.12 386.407 198.986 386.407 197.306V172.232C386.407 169.04 385.651 166.562 384.139 164.798C382.711 162.95 380.779 161.984 378.343 161.9C376.495 161.9 374.857 162.194 373.429 162.782C372.001 163.37 370.531 164.168 369.019 165.176C368.683 165.512 368.431 165.89 368.263 166.31C368.095 166.73 368.011 167.15 368.011 167.57V197.306C368.011 198.986 368.473 200.12 369.397 200.708C370.321 201.212 371.371 201.674 372.547 202.094C374.227 202.598 375.067 203.438 375.067 204.614C375.067 205.118 374.857 205.538 374.437 205.874C374.017 206.21 373.513 206.378 372.925 206.378C371.245 206.378 369.691 206.294 368.263 206.126C366.835 206.042 365.491 205.958 364.231 205.874C362.971 205.79 361.585 205.748 360.073 205.748C358.645 205.748 357.175 205.79 355.663 205.874C354.235 205.958 352.723 206.042 351.127 206.126C349.615 206.294 348.019 206.378 346.339 206.378ZM438.042 207.764C432.498 207.764 428.34 206.378 425.568 203.606C422.796 200.75 421.41 196.76 421.41 191.636V162.656C421.41 161.9 421.116 161.354 420.528 161.018C420.024 160.682 419.016 160.472 417.504 160.388H415.866C415.278 160.388 414.774 159.926 414.354 159.002C414.018 157.994 413.85 157.112 413.85 156.356C413.85 156.188 413.892 155.978 413.976 155.726C414.144 155.39 414.354 155.18 414.606 155.096C416.622 154.34 418.764 153.206 421.032 151.694C423.384 150.098 425.61 148.418 427.71 146.654C429.894 144.89 431.658 143.42 433.002 142.244C433.59 141.824 434.094 141.446 434.514 141.11C434.934 140.774 435.48 140.606 436.152 140.606C436.908 140.606 437.454 140.774 437.79 141.11C438.126 141.362 438.21 142.034 438.042 143.126L437.286 150.56C437.202 151.568 437.412 152.282 437.916 152.702C438.504 153.038 439.302 153.206 440.31 153.206H455.304C455.556 153.206 455.808 153.5 456.06 154.088C456.312 154.676 456.438 155.222 456.438 155.726C456.438 156.902 456.27 158.036 455.934 159.128C455.598 160.22 455.22 160.766 454.8 160.766H443.082C441.15 160.766 439.806 161.018 439.05 161.522C438.378 161.942 438.042 162.74 438.042 163.916V187.73C438.042 191.594 438.756 194.492 440.184 196.424C441.696 198.272 443.67 199.196 446.106 199.196C448.542 199.196 450.306 198.944 451.398 198.44C452.574 197.936 453.624 197.516 454.548 197.18C454.884 197.012 455.136 196.928 455.304 196.928C455.724 196.928 456.06 197.18 456.312 197.684C456.564 198.188 456.69 198.776 456.69 199.448C456.69 199.952 455.808 200.876 454.044 202.22C452.28 203.564 449.97 204.824 447.114 206C444.342 207.176 441.318 207.764 438.042 207.764ZM487.56 207.764C482.52 207.764 477.984 206.63 473.952 204.362C469.92 202.094 466.686 198.986 464.25 195.038C461.898 191.006 460.722 186.47 460.722 181.43C460.722 177.398 461.478 173.576 462.99 169.964C464.502 166.352 466.602 163.16 469.29 160.388C471.978 157.616 475.128 155.432 478.74 153.836C482.352 152.24 486.216 151.442 490.332 151.442C495.54 151.442 500.244 152.66 504.444 155.096C508.644 157.532 511.962 160.766 514.398 164.798C516.918 168.746 518.178 173.072 518.178 177.776C518.178 183.152 517.002 188.15 514.65 192.77C512.382 197.306 508.98 200.96 504.444 203.732C499.992 206.42 494.364 207.764 487.56 207.764ZM490.08 202.22C491.844 202.22 493.356 201.884 494.616 201.212C495.96 200.456 497.052 199.364 497.892 197.936C498.9 196.256 499.572 193.988 499.908 191.132C500.328 188.192 500.538 184.748 500.538 180.8C500.538 176.264 500.034 172.232 499.026 168.704C498.018 165.092 496.59 162.236 494.742 160.136C492.978 158.036 490.878 156.986 488.442 156.986C487.098 156.986 485.88 157.238 484.788 157.742C483.696 158.162 482.73 158.792 481.89 159.632C480.462 161.312 479.454 163.706 478.866 166.814C478.362 169.922 478.11 173.744 478.11 178.28C478.11 182.312 478.614 186.176 479.622 189.872C480.714 193.484 482.142 196.466 483.906 198.818C485.754 201.086 487.812 202.22 490.08 202.22Z" fill="white"/>
</g>
<g filter="url(#filter1_d_0_1)">
<path d="M35.3064 258.217C35.3064 258.115 35.3914 258.064 35.5614 258.064C35.7654 258.064 35.8674 258.115 35.8674 258.217C35.6294 260.665 35.5104 262.671 35.5104 264.235C35.5104 264.507 35.4594 264.711 35.3574 264.847C35.2554 264.949 35.0514 265 34.7454 265H16.0794C16.0114 265 15.9774 264.898 15.9774 264.694C15.9774 264.49 16.0114 264.388 16.0794 264.388C17.2014 264.388 18.0174 264.303 18.5274 264.133C19.0374 263.963 19.3774 263.64 19.5474 263.164C19.7514 262.654 19.8534 261.889 19.8534 260.869V245.263C19.8534 244.243 19.7514 243.495 19.5474 243.019C19.3774 242.543 19.0374 242.22 18.5274 242.05C18.0174 241.846 17.2014 241.744 16.0794 241.744C16.0114 241.744 15.9774 241.642 15.9774 241.438C15.9774 241.234 16.0114 241.132 16.0794 241.132H33.8274C34.1674 241.132 34.3374 241.268 34.3374 241.54L34.3884 244.702C34.4224 245.348 34.4394 246.164 34.4394 247.15C34.4394 247.252 34.3374 247.303 34.1334 247.303C33.9294 247.303 33.8274 247.252 33.8274 247.15C33.6914 245.586 33.1134 244.311 32.0934 243.325C31.1074 242.305 29.8834 241.795 28.4214 241.795H26.9934C25.8034 241.795 24.9364 241.897 24.3924 242.101C23.8484 242.271 23.4744 242.594 23.2704 243.07C23.0664 243.546 22.9644 244.294 22.9644 245.314V252.301C26.2624 252.267 28.5064 252.182 29.6964 252.046C30.9204 251.876 31.6174 251.791 31.7874 251.791C31.9574 251.791 32.0424 252.148 32.0424 252.862C32.0424 253.644 31.9574 254.035 31.7874 254.035C31.6514 254.035 30.9714 253.95 29.7474 253.78C28.5234 253.576 26.2624 253.44 22.9644 253.372V260.665C22.9644 261.651 23.0664 262.399 23.2704 262.909C23.4744 263.385 23.8484 263.725 24.3924 263.929C24.9704 264.099 25.8374 264.184 26.9934 264.184H29.4414C30.8014 264.184 32.0254 263.64 33.1134 262.552C34.2014 261.43 34.9324 259.985 35.3064 258.217ZM65.4917 241.132C65.5937 241.132 65.6447 241.234 65.6447 241.438C65.6447 241.642 65.5937 241.744 65.4917 241.744C64.2337 241.744 63.3327 242.118 62.7887 242.866C62.2447 243.614 61.9727 244.889 61.9727 246.691V265.561C61.9727 265.629 61.8877 265.68 61.7177 265.714C61.5477 265.748 61.4287 265.731 61.3607 265.663L44.6327 245.314C44.4627 245.144 44.2417 244.889 43.9697 244.549V259.441C43.9697 261.243 44.2247 262.518 44.7347 263.266C45.2447 264.014 46.1287 264.388 47.3867 264.388C47.4547 264.388 47.4887 264.49 47.4887 264.694C47.4887 264.898 47.4547 265 47.3867 265C46.6387 265 46.0607 264.983 45.6527 264.949L43.5107 264.898L41.3177 264.949C40.8757 264.983 40.2637 265 39.4817 265C39.4137 265 39.3797 264.898 39.3797 264.694C39.3797 264.49 39.4137 264.388 39.4817 264.388C40.7397 264.388 41.6237 264.014 42.1337 263.266C42.6777 262.518 42.9497 261.243 42.9497 259.441V243.529C42.2697 242.883 41.6577 242.424 41.1137 242.152C40.5697 241.88 40.0257 241.744 39.4817 241.744C39.4137 241.744 39.3797 241.642 39.3797 241.438C39.3797 241.234 39.4137 241.132 39.4817 241.132L42.3377 241.183L45.0407 241.132C45.2787 241.132 45.4657 241.2 45.6017 241.336C45.7717 241.472 46.0097 241.761 46.3157 242.203C46.5877 242.645 46.9617 243.172 47.4377 243.784L60.9527 260.461V246.691C60.9527 244.889 60.6977 243.614 60.1877 242.866C59.7117 242.118 58.8447 241.744 57.5867 241.744C57.4847 241.744 57.4337 241.642 57.4337 241.438C57.4337 241.234 57.4847 241.132 57.5867 241.132L59.3207 241.183C60.2047 241.251 60.9187 241.285 61.4627 241.285C62.0067 241.285 62.7547 241.251 63.7067 241.183L65.4917 241.132ZM86.6407 241.795C85.3487 241.795 84.3287 241.982 83.5807 242.356C82.8327 242.696 82.2377 243.291 81.7957 244.141C81.3877 244.991 81.0647 246.198 80.8267 247.762C80.8267 247.83 80.7247 247.864 80.5207 247.864C80.3507 247.864 80.2657 247.83 80.2657 247.762C80.3677 246.98 80.4867 245.722 80.6227 243.988C80.7587 242.254 80.8267 240.928 80.8267 240.01C80.8267 239.84 80.9287 239.755 81.1327 239.755C81.3367 239.755 81.4387 239.84 81.4387 240.01C81.4387 240.452 81.6937 240.741 82.2037 240.877C82.7137 240.979 83.3427 241.03 84.0907 241.03C87.0827 241.098 89.6497 241.132 91.7917 241.132L96.2287 241.081C96.8407 241.047 97.6397 241.03 98.6257 241.03C99.8497 241.03 100.751 240.962 101.329 240.826C101.907 240.656 102.281 240.316 102.451 239.806C102.519 239.704 102.638 239.653 102.808 239.653C102.978 239.653 103.063 239.704 103.063 239.806C102.859 243.478 102.757 246.13 102.757 247.762C102.757 247.83 102.655 247.864 102.451 247.864C102.281 247.864 102.196 247.83 102.196 247.762C102.162 246.232 101.975 245.042 101.635 244.192C101.329 243.342 100.802 242.73 100.054 242.356C99.3057 241.982 98.2687 241.795 96.9427 241.795C95.4807 241.795 94.5117 242.033 94.0357 242.509C93.5597 242.951 93.3217 243.869 93.3217 245.263V260.869C93.3217 261.923 93.4237 262.688 93.6277 263.164C93.8317 263.64 94.2227 263.963 94.8007 264.133C95.3787 264.303 96.3307 264.388 97.6567 264.388C97.7587 264.388 97.8097 264.49 97.8097 264.694C97.8097 264.898 97.7587 265 97.6567 265C96.6027 265 95.7867 264.983 95.2087 264.949L91.6387 264.898L88.2217 264.949C87.6097 264.983 86.7597 265 85.6717 265C85.6037 265 85.5697 264.898 85.5697 264.694C85.5697 264.49 85.6037 264.388 85.6717 264.388C86.9637 264.388 87.9157 264.303 88.5277 264.133C89.1397 263.963 89.5477 263.64 89.7517 263.164C89.9897 262.654 90.1087 261.889 90.1087 260.869V245.161C90.1087 244.175 90.0237 243.461 89.8537 243.019C89.7177 242.543 89.4117 242.22 88.9357 242.05C88.4597 241.88 87.6947 241.795 86.6407 241.795ZM128.415 246.13C128.415 244.43 128.143 243.274 127.599 242.662C127.055 242.05 126.001 241.744 124.437 241.744C124.335 241.744 124.284 241.642 124.284 241.438C124.284 241.234 124.335 241.132 124.437 241.132L126.477 241.183C127.497 241.251 128.313 241.285 128.925 241.285C129.401 241.285 130.115 241.251 131.067 241.183L133.005 241.132C133.073 241.132 133.107 241.234 133.107 241.438C133.107 241.642 133.073 241.744 133.005 241.744C131.645 241.744 130.71 242.05 130.2 242.662C129.724 243.274 129.486 244.43 129.486 246.13V255.616C129.486 258.778 128.602 261.243 126.834 263.011C125.066 264.779 122.686 265.663 119.694 265.663C117.79 265.663 116.056 265.289 114.492 264.541C112.928 263.759 111.687 262.654 110.769 261.226C109.851 259.798 109.392 258.098 109.392 256.126V245.263C109.392 244.243 109.29 243.495 109.086 243.019C108.916 242.543 108.559 242.22 108.015 242.05C107.505 241.846 106.706 241.744 105.618 241.744C105.516 241.744 105.465 241.642 105.465 241.438C105.465 241.234 105.516 241.132 105.618 241.132L107.913 241.183C109.137 241.251 110.106 241.285 110.82 241.285C111.67 241.285 112.741 241.251 114.033 241.183L116.226 241.132C116.328 241.132 116.379 241.234 116.379 241.438C116.379 241.642 116.328 241.744 116.226 241.744C115.138 241.744 114.322 241.846 113.778 242.05C113.234 242.254 112.86 242.611 112.656 243.121C112.486 243.597 112.401 244.345 112.401 245.365V254.8C112.401 257.962 113.183 260.308 114.747 261.838C116.345 263.334 118.385 264.082 120.867 264.082C123.213 264.082 125.049 263.368 126.375 261.94C127.735 260.478 128.415 258.404 128.415 255.718V246.13ZM154.399 260.665C154.399 261.753 154.518 262.552 154.756 263.062C154.994 263.538 155.453 263.878 156.133 264.082C156.847 264.286 157.952 264.388 159.448 264.388C159.55 264.388 159.601 264.49 159.601 264.694C159.601 264.898 159.55 265 159.448 265C158.224 265 157.289 264.983 156.643 264.949L152.869 264.898L149.86 264.949C149.282 264.983 148.5 265 147.514 265C147.446 265 147.412 264.898 147.412 264.694C147.412 264.49 147.446 264.388 147.514 264.388C148.636 264.388 149.452 264.303 149.962 264.133C150.472 263.963 150.812 263.64 150.982 263.164C151.186 262.654 151.288 261.889 151.288 260.869V245.263C151.288 244.243 151.186 243.495 150.982 243.019C150.812 242.543 150.455 242.22 149.911 242.05C149.401 241.846 148.602 241.744 147.514 241.744C147.446 241.744 147.412 241.642 147.412 241.438C147.412 241.234 147.446 241.132 147.514 241.132L149.809 241.183C151.101 241.251 152.104 241.285 152.818 241.285C153.396 241.285 153.94 241.268 154.45 241.234C154.994 241.2 155.453 241.166 155.827 241.132C156.881 241.03 157.867 240.979 158.785 240.979C164.395 240.979 167.2 243.053 167.2 247.201C167.2 248.833 166.775 250.21 165.925 251.332C165.109 252.42 164.055 253.236 162.763 253.78C161.505 254.324 160.196 254.596 158.836 254.596C157.918 254.596 157.17 254.528 156.592 254.392C156.524 254.392 156.49 254.307 156.49 254.137C156.49 253.865 156.575 253.729 156.745 253.729C157.255 253.831 157.782 253.882 158.326 253.882C159.822 253.882 161.08 253.406 162.1 252.454C163.154 251.468 163.681 250.057 163.681 248.221C163.681 246.079 163.12 244.464 161.998 243.376C160.91 242.254 159.431 241.693 157.561 241.693C156.711 241.693 156.065 241.761 155.623 241.897C155.215 242.033 154.909 242.356 154.705 242.866C154.501 243.376 154.399 244.209 154.399 245.365V260.665ZM196.98 264.388C197.048 264.388 197.082 264.49 197.082 264.694C197.082 264.898 197.048 265 196.98 265H191.013C190.401 265 189.313 263.98 187.749 261.94C186.219 259.9 184.366 257.078 182.19 253.474C181.544 253.61 180.813 253.678 179.997 253.678C179.147 253.678 178.501 253.644 178.059 253.576V260.869C178.059 261.923 178.144 262.688 178.314 263.164C178.484 263.64 178.824 263.963 179.334 264.133C179.844 264.303 180.677 264.388 181.833 264.388C181.901 264.388 181.935 264.49 181.935 264.694C181.935 264.898 181.901 265 181.833 265C180.881 265 180.15 264.983 179.64 264.949L176.427 264.898L173.418 264.949C172.84 264.983 172.058 265 171.072 265C171.004 265 170.97 264.898 170.97 264.694C170.97 264.49 171.004 264.388 171.072 264.388C172.194 264.388 173.01 264.303 173.52 264.133C174.064 263.963 174.438 263.64 174.642 263.164C174.846 262.654 174.948 261.889 174.948 260.869V245.263C174.948 244.243 174.846 243.495 174.642 243.019C174.472 242.543 174.115 242.22 173.571 242.05C173.061 241.846 172.245 241.744 171.123 241.744C171.055 241.744 171.021 241.642 171.021 241.438C171.021 241.234 171.055 241.132 171.123 241.132L173.469 241.183C174.693 241.251 175.679 241.285 176.427 241.285C177.039 241.285 177.6 241.268 178.11 241.234C178.654 241.2 179.113 241.166 179.487 241.132C180.541 241.03 181.544 240.979 182.496 240.979C184.706 240.979 186.389 241.404 187.545 242.254C188.701 243.104 189.279 244.328 189.279 245.926C189.279 247.286 188.888 248.544 188.106 249.7C187.324 250.856 186.27 251.791 184.944 252.505C186.848 255.633 188.446 258.047 189.738 259.747C191.064 261.413 192.271 262.603 193.359 263.317C194.481 264.031 195.688 264.388 196.98 264.388ZM178.059 252.658C178.671 252.76 179.436 252.811 180.354 252.811C182.462 252.811 183.924 252.352 184.74 251.434C185.59 250.482 186.015 249.105 186.015 247.303C186.015 243.563 184.4 241.693 181.17 241.693C179.878 241.693 179.028 241.965 178.62 242.509C178.246 243.053 178.059 244.005 178.059 245.365V252.658ZM205.558 260.869C205.558 261.923 205.643 262.688 205.813 263.164C206.017 263.64 206.374 263.963 206.884 264.133C207.394 264.303 208.227 264.388 209.383 264.388C209.451 264.388 209.485 264.49 209.485 264.694C209.485 264.898 209.451 265 209.383 265C208.431 265 207.683 264.983 207.139 264.949L203.926 264.898L200.917 264.949C200.339 264.983 199.557 265 198.571 265C198.503 265 198.469 264.898 198.469 264.694C198.469 264.49 198.503 264.388 198.571 264.388C199.727 264.388 200.56 264.303 201.07 264.133C201.58 263.963 201.92 263.64 202.09 263.164C202.294 262.688 202.396 261.923 202.396 260.869V245.263C202.396 244.243 202.294 243.495 202.09 243.019C201.92 242.543 201.563 242.22 201.019 242.05C200.509 241.846 199.693 241.744 198.571 241.744C198.503 241.744 198.469 241.642 198.469 241.438C198.469 241.234 198.503 241.132 198.571 241.132L200.917 241.183C202.141 241.251 203.144 241.285 203.926 241.285C204.81 241.285 205.898 241.251 207.19 241.183L209.383 241.132C209.451 241.132 209.485 241.234 209.485 241.438C209.485 241.642 209.451 241.744 209.383 241.744C208.295 241.744 207.479 241.846 206.935 242.05C206.391 242.254 206.017 242.611 205.813 243.121C205.643 243.597 205.558 244.345 205.558 245.365V260.869ZM245.03 264.388C245.098 264.388 245.132 264.49 245.132 264.694C245.132 264.898 245.098 265 245.03 265C244.078 265 243.33 264.983 242.786 264.949L239.777 264.898L236.309 264.949C235.731 264.983 234.932 265 233.912 265C233.844 265 233.81 264.898 233.81 264.694C233.81 264.49 233.844 264.388 233.912 264.388C235.17 264.388 236.105 264.303 236.717 264.133C237.329 263.929 237.737 263.589 237.941 263.113C238.145 262.637 238.213 261.889 238.145 260.869L237.533 243.682L228.761 264.643C228.693 264.779 228.574 264.847 228.404 264.847C228.2 264.847 228.064 264.779 227.996 264.643L218.255 245.365L218.153 245.161L217.694 259.441C217.66 261.243 217.898 262.518 218.408 263.266C218.918 264.014 219.785 264.388 221.009 264.388C221.111 264.388 221.162 264.49 221.162 264.694C221.162 264.898 221.111 265 221.009 265C220.295 265 219.751 264.983 219.377 264.949L217.133 264.898L214.991 264.949C214.549 264.983 213.937 265 213.155 265C213.087 265 213.053 264.898 213.053 264.694C213.053 264.49 213.087 264.388 213.155 264.388C214.413 264.388 215.297 264.014 215.807 263.266C216.317 262.518 216.606 261.243 216.674 259.441L217.184 243.631C216.198 242.373 214.991 241.744 213.563 241.744C213.461 241.744 213.41 241.642 213.41 241.438C213.41 241.234 213.461 241.132 213.563 241.132L216.368 241.183L218.816 241.132C219.258 241.132 219.615 241.285 219.887 241.591C220.159 241.897 220.584 242.628 221.162 243.784L229.526 260.41L237.074 242.407C237.21 242.033 237.414 241.727 237.686 241.489C237.992 241.251 238.298 241.132 238.604 241.132L241.307 241.183L244.724 241.132C244.792 241.132 244.826 241.234 244.826 241.438C244.826 241.642 244.792 241.744 244.724 241.744C243.194 241.744 242.123 241.982 241.511 242.458C240.899 242.9 240.627 243.801 240.695 245.161L241.307 260.869C241.375 261.923 241.494 262.688 241.664 263.164C241.834 263.64 242.157 263.963 242.633 264.133C243.143 264.303 243.942 264.388 245.03 264.388ZM267.546 258.217C267.546 258.115 267.631 258.064 267.801 258.064C268.005 258.064 268.107 258.115 268.107 258.217C267.869 260.665 267.75 262.671 267.75 264.235C267.75 264.507 267.699 264.711 267.597 264.847C267.495 264.949 267.291 265 266.985 265H248.319C248.251 265 248.217 264.898 248.217 264.694C248.217 264.49 248.251 264.388 248.319 264.388C249.441 264.388 250.257 264.303 250.767 264.133C251.277 263.963 251.617 263.64 251.787 263.164C251.991 262.654 252.093 261.889 252.093 260.869V245.263C252.093 244.243 251.991 243.495 251.787 243.019C251.617 242.543 251.277 242.22 250.767 242.05C250.257 241.846 249.441 241.744 248.319 241.744C248.251 241.744 248.217 241.642 248.217 241.438C248.217 241.234 248.251 241.132 248.319 241.132H266.067C266.407 241.132 266.577 241.268 266.577 241.54L266.628 244.702C266.662 245.348 266.679 246.164 266.679 247.15C266.679 247.252 266.577 247.303 266.373 247.303C266.169 247.303 266.067 247.252 266.067 247.15C265.931 245.586 265.353 244.311 264.333 243.325C263.347 242.305 262.123 241.795 260.661 241.795H259.233C258.043 241.795 257.176 241.897 256.632 242.101C256.088 242.271 255.714 242.594 255.51 243.07C255.306 243.546 255.204 244.294 255.204 245.314V252.301C258.502 252.267 260.746 252.182 261.936 252.046C263.16 251.876 263.857 251.791 264.027 251.791C264.197 251.791 264.282 252.148 264.282 252.862C264.282 253.644 264.197 254.035 264.027 254.035C263.891 254.035 263.211 253.95 261.987 253.78C260.763 253.576 258.502 253.44 255.204 253.372V260.665C255.204 261.651 255.306 262.399 255.51 262.909C255.714 263.385 256.088 263.725 256.632 263.929C257.21 264.099 258.077 264.184 259.233 264.184H261.681C263.041 264.184 264.265 263.64 265.353 262.552C266.441 261.43 267.172 259.985 267.546 258.217ZM297.884 264.388C297.952 264.388 297.986 264.49 297.986 264.694C297.986 264.898 297.952 265 297.884 265H291.917C291.305 265 290.217 263.98 288.653 261.94C287.123 259.9 285.27 257.078 283.094 253.474C282.448 253.61 281.717 253.678 280.901 253.678C280.051 253.678 279.405 253.644 278.963 253.576V260.869C278.963 261.923 279.048 262.688 279.218 263.164C279.388 263.64 279.728 263.963 280.238 264.133C280.748 264.303 281.581 264.388 282.737 264.388C282.805 264.388 282.839 264.49 282.839 264.694C282.839 264.898 282.805 265 282.737 265C281.785 265 281.054 264.983 280.544 264.949L277.331 264.898L274.322 264.949C273.744 264.983 272.962 265 271.976 265C271.908 265 271.874 264.898 271.874 264.694C271.874 264.49 271.908 264.388 271.976 264.388C273.098 264.388 273.914 264.303 274.424 264.133C274.968 263.963 275.342 263.64 275.546 263.164C275.75 262.654 275.852 261.889 275.852 260.869V245.263C275.852 244.243 275.75 243.495 275.546 243.019C275.376 242.543 275.019 242.22 274.475 242.05C273.965 241.846 273.149 241.744 272.027 241.744C271.959 241.744 271.925 241.642 271.925 241.438C271.925 241.234 271.959 241.132 272.027 241.132L274.373 241.183C275.597 241.251 276.583 241.285 277.331 241.285C277.943 241.285 278.504 241.268 279.014 241.234C279.558 241.2 280.017 241.166 280.391 241.132C281.445 241.03 282.448 240.979 283.4 240.979C285.61 240.979 287.293 241.404 288.449 242.254C289.605 243.104 290.183 244.328 290.183 245.926C290.183 247.286 289.792 248.544 289.01 249.7C288.228 250.856 287.174 251.791 285.848 252.505C287.752 255.633 289.35 258.047 290.642 259.747C291.968 261.413 293.175 262.603 294.263 263.317C295.385 264.031 296.592 264.388 297.884 264.388ZM278.963 252.658C279.575 252.76 280.34 252.811 281.258 252.811C283.366 252.811 284.828 252.352 285.644 251.434C286.494 250.482 286.919 249.105 286.919 247.303C286.919 243.563 285.304 241.693 282.074 241.693C280.782 241.693 279.932 241.965 279.524 242.509C279.15 243.053 278.963 244.005 278.963 245.365V252.658ZM325.74 264.388C325.876 264.388 325.944 264.49 325.944 264.694C325.944 264.898 325.876 265 325.74 265C325.128 265 324.142 264.966 322.782 264.898C321.422 264.83 320.436 264.796 319.824 264.796C319.28 264.796 318.566 264.83 317.682 264.898C316.798 264.966 316.118 265 315.642 265C315.506 265 315.438 264.898 315.438 264.694C315.438 264.49 315.506 264.388 315.642 264.388C316.526 264.388 317.172 264.286 317.58 264.082C318.022 263.844 318.243 263.436 318.243 262.858C318.243 262.348 318.039 261.634 317.631 260.716L314.163 253.27H307.023L304.83 258.727C304.286 260.019 304.014 261.09 304.014 261.94C304.014 262.824 304.32 263.453 304.932 263.827C305.544 264.201 306.479 264.388 307.737 264.388C307.907 264.388 307.992 264.49 307.992 264.694C307.992 264.898 307.907 265 307.737 265C307.227 265 306.53 264.966 305.646 264.898C304.694 264.83 303.81 264.796 302.994 264.796C302.144 264.796 301.141 264.83 299.985 264.898C298.965 264.966 298.149 265 297.537 265C297.367 265 297.282 264.898 297.282 264.694C297.282 264.49 297.367 264.388 297.537 264.388C298.591 264.388 299.424 264.252 300.036 263.98C300.648 263.674 301.209 263.096 301.719 262.246C302.263 261.396 302.909 260.07 303.657 258.268L311.001 240.367C311.069 240.231 311.171 240.163 311.307 240.163C311.443 240.163 311.528 240.231 311.562 240.367L319.773 258.013C320.657 259.917 321.354 261.294 321.864 262.144C322.408 262.994 322.952 263.589 323.496 263.929C324.074 264.235 324.822 264.388 325.74 264.388ZM307.38 252.352H313.755L310.338 245.008L307.38 252.352ZM353.687 240.52C354.979 240.52 356.356 240.656 357.818 240.928C359.314 241.2 360.521 241.557 361.439 241.999C361.677 242.101 361.83 242.203 361.898 242.305C361.966 242.407 362.017 242.594 362.051 242.866L362.561 248.119C362.561 248.221 362.459 248.289 362.255 248.323C362.085 248.357 361.983 248.306 361.949 248.17C361.337 245.824 360.215 244.09 358.583 242.968C356.985 241.846 354.996 241.285 352.616 241.285C350.848 241.285 349.25 241.761 347.822 242.713C346.428 243.665 345.323 244.974 344.507 246.64C343.725 248.272 343.334 250.125 343.334 252.199C343.334 254.307 343.725 256.347 344.507 258.319C345.323 260.257 346.53 261.838 348.128 263.062C349.76 264.286 351.715 264.898 353.993 264.898C358.277 264.898 361.082 262.552 362.408 257.86C362.408 257.758 362.493 257.707 362.663 257.707C362.731 257.707 362.799 257.741 362.867 257.809C362.969 257.843 363.02 257.877 363.02 257.911L362.357 263.317C362.323 263.589 362.272 263.776 362.204 263.878C362.136 263.98 361.949 264.099 361.643 264.235C359.025 265.153 356.305 265.612 353.483 265.612C350.253 265.612 347.601 264.966 345.527 263.674C343.453 262.382 341.957 260.767 341.039 258.829C340.121 256.891 339.662 254.936 339.662 252.964C339.662 250.652 340.274 248.544 341.498 246.64C342.722 244.736 344.405 243.24 346.547 242.152C348.689 241.064 351.069 240.52 353.687 240.52ZM378.944 265.612C376.564 265.612 374.439 265.051 372.569 263.929C370.733 262.807 369.305 261.294 368.285 259.39C367.265 257.486 366.755 255.429 366.755 253.219C366.755 250.567 367.435 248.289 368.795 246.385C370.189 244.447 371.94 242.985 374.048 241.999C376.19 241.013 378.366 240.52 380.576 240.52C382.956 240.52 385.047 241.115 386.849 242.305C388.685 243.461 390.079 244.974 391.031 246.844C392.017 248.714 392.51 250.669 392.51 252.709C392.51 254.987 391.898 257.129 390.674 259.135C389.45 261.107 387.801 262.688 385.727 263.878C383.653 265.034 381.392 265.612 378.944 265.612ZM380.27 264.541C382.922 264.541 385.03 263.606 386.594 261.736C388.192 259.866 388.991 257.282 388.991 253.984C388.991 251.706 388.583 249.632 387.767 247.762C386.985 245.892 385.829 244.396 384.299 243.274C382.769 242.152 380.95 241.591 378.842 241.591C376.122 241.591 374.014 242.509 372.518 244.345C371.022 246.147 370.274 248.68 370.274 251.944C370.274 254.29 370.665 256.415 371.447 258.319C372.263 260.223 373.419 261.736 374.915 262.858C376.445 263.98 378.23 264.541 380.27 264.541ZM427.963 264.388C428.031 264.388 428.065 264.49 428.065 264.694C428.065 264.898 428.031 265 427.963 265C427.011 265 426.263 264.983 425.719 264.949L422.71 264.898L419.242 264.949C418.664 264.983 417.865 265 416.845 265C416.777 265 416.743 264.898 416.743 264.694C416.743 264.49 416.777 264.388 416.845 264.388C418.103 264.388 419.038 264.303 419.65 264.133C420.262 263.929 420.67 263.589 420.874 263.113C421.078 262.637 421.146 261.889 421.078 260.869L420.466 243.682L411.694 264.643C411.626 264.779 411.507 264.847 411.337 264.847C411.133 264.847 410.997 264.779 410.929 264.643L401.188 245.365L401.086 245.161L400.627 259.441C400.593 261.243 400.831 262.518 401.341 263.266C401.851 264.014 402.718 264.388 403.942 264.388C404.044 264.388 404.095 264.49 404.095 264.694C404.095 264.898 404.044 265 403.942 265C403.228 265 402.684 264.983 402.31 264.949L400.066 264.898L397.924 264.949C397.482 264.983 396.87 265 396.088 265C396.02 265 395.986 264.898 395.986 264.694C395.986 264.49 396.02 264.388 396.088 264.388C397.346 264.388 398.23 264.014 398.74 263.266C399.25 262.518 399.539 261.243 399.607 259.441L400.117 243.631C399.131 242.373 397.924 241.744 396.496 241.744C396.394 241.744 396.343 241.642 396.343 241.438C396.343 241.234 396.394 241.132 396.496 241.132L399.301 241.183L401.749 241.132C402.191 241.132 402.548 241.285 402.82 241.591C403.092 241.897 403.517 242.628 404.095 243.784L412.459 260.41L420.007 242.407C420.143 242.033 420.347 241.727 420.619 241.489C420.925 241.251 421.231 241.132 421.537 241.132L424.24 241.183L427.657 241.132C427.725 241.132 427.759 241.234 427.759 241.438C427.759 241.642 427.725 241.744 427.657 241.744C426.127 241.744 425.056 241.982 424.444 242.458C423.832 242.9 423.56 243.801 423.628 245.161L424.24 260.869C424.308 261.923 424.427 262.688 424.597 263.164C424.767 263.64 425.09 263.963 425.566 264.133C426.076 264.303 426.875 264.388 427.963 264.388ZM438.136 260.665C438.136 261.753 438.255 262.552 438.493 263.062C438.731 263.538 439.19 263.878 439.87 264.082C440.584 264.286 441.689 264.388 443.185 264.388C443.287 264.388 443.338 264.49 443.338 264.694C443.338 264.898 443.287 265 443.185 265C441.961 265 441.026 264.983 440.38 264.949L436.606 264.898L433.597 264.949C433.019 264.983 432.237 265 431.251 265C431.183 265 431.149 264.898 431.149 264.694C431.149 264.49 431.183 264.388 431.251 264.388C432.373 264.388 433.189 264.303 433.699 264.133C434.209 263.963 434.549 263.64 434.719 263.164C434.923 262.654 435.025 261.889 435.025 260.869V245.263C435.025 244.243 434.923 243.495 434.719 243.019C434.549 242.543 434.192 242.22 433.648 242.05C433.138 241.846 432.339 241.744 431.251 241.744C431.183 241.744 431.149 241.642 431.149 241.438C431.149 241.234 431.183 241.132 431.251 241.132L433.546 241.183C434.838 241.251 435.841 241.285 436.555 241.285C437.133 241.285 437.677 241.268 438.187 241.234C438.731 241.2 439.19 241.166 439.564 241.132C440.618 241.03 441.604 240.979 442.522 240.979C448.132 240.979 450.937 243.053 450.937 247.201C450.937 248.833 450.512 250.21 449.662 251.332C448.846 252.42 447.792 253.236 446.5 253.78C445.242 254.324 443.933 254.596 442.573 254.596C441.655 254.596 440.907 254.528 440.329 254.392C440.261 254.392 440.227 254.307 440.227 254.137C440.227 253.865 440.312 253.729 440.482 253.729C440.992 253.831 441.519 253.882 442.063 253.882C443.559 253.882 444.817 253.406 445.837 252.454C446.891 251.468 447.418 250.057 447.418 248.221C447.418 246.079 446.857 244.464 445.735 243.376C444.647 242.254 443.168 241.693 441.298 241.693C440.448 241.693 439.802 241.761 439.36 241.897C438.952 242.033 438.646 242.356 438.442 242.866C438.238 243.376 438.136 244.209 438.136 245.365V260.665ZM480.717 264.388C480.785 264.388 480.819 264.49 480.819 264.694C480.819 264.898 480.785 265 480.717 265H474.75C474.138 265 473.05 263.98 471.486 261.94C469.956 259.9 468.103 257.078 465.927 253.474C465.281 253.61 464.55 253.678 463.734 253.678C462.884 253.678 462.238 253.644 461.796 253.576V260.869C461.796 261.923 461.881 262.688 462.051 263.164C462.221 263.64 462.561 263.963 463.071 264.133C463.581 264.303 464.414 264.388 465.57 264.388C465.638 264.388 465.672 264.49 465.672 264.694C465.672 264.898 465.638 265 465.57 265C464.618 265 463.887 264.983 463.377 264.949L460.164 264.898L457.155 264.949C456.577 264.983 455.795 265 454.809 265C454.741 265 454.707 264.898 454.707 264.694C454.707 264.49 454.741 264.388 454.809 264.388C455.931 264.388 456.747 264.303 457.257 264.133C457.801 263.963 458.175 263.64 458.379 263.164C458.583 262.654 458.685 261.889 458.685 260.869V245.263C458.685 244.243 458.583 243.495 458.379 243.019C458.209 242.543 457.852 242.22 457.308 242.05C456.798 241.846 455.982 241.744 454.86 241.744C454.792 241.744 454.758 241.642 454.758 241.438C454.758 241.234 454.792 241.132 454.86 241.132L457.206 241.183C458.43 241.251 459.416 241.285 460.164 241.285C460.776 241.285 461.337 241.268 461.847 241.234C462.391 241.2 462.85 241.166 463.224 241.132C464.278 241.03 465.281 240.979 466.233 240.979C468.443 240.979 470.126 241.404 471.282 242.254C472.438 243.104 473.016 244.328 473.016 245.926C473.016 247.286 472.625 248.544 471.843 249.7C471.061 250.856 470.007 251.791 468.681 252.505C470.585 255.633 472.183 258.047 473.475 259.747C474.801 261.413 476.008 262.603 477.096 263.317C478.218 264.031 479.425 264.388 480.717 264.388ZM461.796 252.658C462.408 252.76 463.173 252.811 464.091 252.811C466.199 252.811 467.661 252.352 468.477 251.434C469.327 250.482 469.752 249.105 469.752 247.303C469.752 243.563 468.137 241.693 464.907 241.693C463.615 241.693 462.765 241.965 462.357 242.509C461.983 243.053 461.796 244.005 461.796 245.365V252.658ZM508.573 264.388C508.709 264.388 508.777 264.49 508.777 264.694C508.777 264.898 508.709 265 508.573 265C507.961 265 506.975 264.966 505.615 264.898C504.255 264.83 503.269 264.796 502.657 264.796C502.113 264.796 501.399 264.83 500.515 264.898C499.631 264.966 498.951 265 498.475 265C498.339 265 498.271 264.898 498.271 264.694C498.271 264.49 498.339 264.388 498.475 264.388C499.359 264.388 500.005 264.286 500.413 264.082C500.855 263.844 501.076 263.436 501.076 262.858C501.076 262.348 500.872 261.634 500.464 260.716L496.996 253.27H489.856L487.663 258.727C487.119 260.019 486.847 261.09 486.847 261.94C486.847 262.824 487.153 263.453 487.765 263.827C488.377 264.201 489.312 264.388 490.57 264.388C490.74 264.388 490.825 264.49 490.825 264.694C490.825 264.898 490.74 265 490.57 265C490.06 265 489.363 264.966 488.479 264.898C487.527 264.83 486.643 264.796 485.827 264.796C484.977 264.796 483.974 264.83 482.818 264.898C481.798 264.966 480.982 265 480.37 265C480.2 265 480.115 264.898 480.115 264.694C480.115 264.49 480.2 264.388 480.37 264.388C481.424 264.388 482.257 264.252 482.869 263.98C483.481 263.674 484.042 263.096 484.552 262.246C485.096 261.396 485.742 260.07 486.49 258.268L493.834 240.367C493.902 240.231 494.004 240.163 494.14 240.163C494.276 240.163 494.361 240.231 494.395 240.367L502.606 258.013C503.49 259.917 504.187 261.294 504.697 262.144C505.241 262.994 505.785 263.589 506.329 263.929C506.907 264.235 507.655 264.388 508.573 264.388ZM490.213 252.352H496.588L493.171 245.008L490.213 252.352Z" fill="white"/>
</g>
<defs>
<filter id="filter0_d_0_1" x="0.956604" y="0.169994" width="521.222" height="216.476" filterUnits="userSpaceOnUse" color-interpolation-filters="sRGB">
<feFlood flood-opacity="0" result="BackgroundImageFix"/>
<feColorMatrix in="SourceAlpha" type="matrix" values="0 0 0 0 0 0 0 0 0 0 0 0 0 0 0 0 0 0 127 0" result="hardAlpha"/>
<feOffset dy="4"/>
<feGaussianBlur stdDeviation="2"/>
<feColorMatrix type="matrix" values="0 0 0 0 0 0 0 0 0 0 0 0 0 0 0 0 0 0 0.75 0"/>
<feBlend mode="normal" in2="BackgroundImageFix" result="effect1_dropShadow_0_1"/>
<feBlend mode="normal" in="SourceGraphic" in2="effect1_dropShadow_0_1" result="shape"/>
</filter>
<filter id="filter1_d_0_1" x="11.9774" y="239.653" width="500.8" height="34.112" filterUnits="userSpaceOnUse" color-interpolation-filters="sRGB">
<feFlood flood-opacity="0" result="BackgroundImageFix"/>
<feColorMatrix in="SourceAlpha" type="matrix" values="0 0 0 0 0 0 0 0 0 0 0 0 0 0 0 0 0 0 127 0" result="hardAlpha"/>
<feOffset dy="4"/>
<feGaussianBlur stdDeviation="2"/>
<feColorMatrix type="matrix" values="0 0 0 0 0 0 0 0 0 0 0 0 0 0 0 0 0 0 0.75 0"/>
<feBlend mode="normal" in2="BackgroundImageFix" result="effect1_dropShadow_0_1"/>
<feBlend mode="normal" in="SourceGraphic" in2="effect1_dropShadow_0_1" result="shape"/>
</filter>
</defs>
</svg>
